# xmcd CD database file
#
# Track frame offsets:
#	150
#	21830
#	42030
#	64338
#	92598
#	120625
#	139175
#	178403
#	203245
#	222550
#	248600
#	270540
#	285793
#	323255
#
# Disc length: 4542 seconds
#
# Revision: 0
# Processed by: cddbd v1.5.1PL0 Copyright (c) Steve Scherf et al.
# Submitted via: CDex 1.51
#
DISCID=c611bc0e
DTITLE=ARIWA LOVERS ROCK COLLECTIONS - RELAXIN' WITH LOVERS VOLUME 8
DYEAR=2005
DGENRE=Rock
TTITLE0=You Are The One_Intense
TTITLE1=I Believe_Intense
TTITLE2=On My Mind_Intense
TTITLE3=Say You_John McClean
TTITLE4=Under The Apple Tree_Jah Warriors
TTITLE5=You'll Never Get To Heaven_Annette B
TTITLE6=My Guy_Sandra Cross
TTITLE7=Didn't I_Kofi
TTITLE8=Got To Find A Way_Lorna Gee
TTITLE9=The Creator_Aisha
TTITLE10=Watching You(Soul Mix)_Brown Sugar
TTITLE11=Gonna Take A Miracle_Tomorrows People
TTITLE12=Over You_Yona
TTITLE13=We Belong Together_Sane Inmates
EXTD=YEAR: 2005
EXTT0=
EXTT1=
EXTT2=
EXTT3=
EXTT4=
EXTT5=
EXTT6=
EXTT7=
EXTT8=
EXTT9=
EXTT10=
EXTT11=
EXTT12=
EXTT13=
PLAYORDER=
